# xmcd CD database file
# Copyright (C) 1997 Ti Kan
# 
# Track frame offsets:
#     150
#     17695
#     33557
#     46912
#     59135
#     71740
#     86905
#     103817
#     122092
#     132567
#     147790
#     167575
#     183375
#     198422
#     219735
#     233695
#     246277
#     262400
#     272865
#     287117
# 
# Disc length: 3972 seconds
# 
# Revision: 1
# Processed by: cddbd v1.4b41PL1 Copyright (c) Steve Scherf et al.
# Submitted via: DiscPlay 4.0.4
# 
DISCID=450f8214
DTITLE=Various Country Artists - Our Country, Our Songs
DYEAR=1900
DGENRE=
TTITLE0=Life's Too Long
TTITLE1=Hey Mister
TTITLE2=Working for the Japanese
TTITLE3=If we Make it Through December
TTITLE4=Workin' Man's Dollar
TTITLE5=Living in the PromiseLand
TTITLE6=U.S. of A.
TTITLE7=Where Have All the Heroes Gone
TTITLE8=This Land is Your Land
TTITLE9=The Grandest Lady of Them All
TTITLE10=Americana
TTITLE11=Song of the Patriot
TTITLE12=America
TTITLE13=American Pride
TTITLE14=All-American Saturday Night
TTITLE15=In the Good Old Days
TTITLE16=Light at the End of the Tunnel
TTITLE17=The American Dream
TTITLE18=On Down the Line
TTITLE19=This Is My Country
EXTD=
EXTT0=Ricky Skaggs\n
EXTT1=Shenandoah\n
EXTT2=Ray Stevens\n
EXTT3=Merle Haggard\n
EXTT4=Chris LeDoux\n
EXTT5=Willie Nelson\n
EXTT6=Donna Fargo\n
EXTT7=Bill Anderson\n
EXTT8=Glen Campbell\n
EXTT9=Conway Twitty\n
EXTT10=Moe Bandy\n
EXTT11=Johnny Cash\n
EXTT12=Lee Greenwood\n
EXTT13=Alabama\n
EXTT14=Jo-El Sonnier\n
EXTT15=Dolly Parton\n
EXTT16=B.B. Watson\n
EXTT17=Hank Williams, Jr.\n
EXTT18=Patty Loveless\n
EXTT19=
PLAYORDER=
